<?xml version="1.0" encoding="UTF-8"?>
<svg version="1.1" viewBox="0 0 1600 1600" width="1280" height="1280" xmlns="http://www.w3.org/2000/svg">
<path transform="translate(331,711)" d="m0 0c10.8 9.32 20.7 19.6 30.8 29.6 1.9 1.89 3.79 3.79 5.68 5.68 4.1 4.09 8.19 8.19 12.3 12.3 6.09 6.1 12.2 12.2 18.3 18.3 10.2 10.2 20.5 20.5 30.7 30.7 10.1 10.2 20.3 20.3 30.4 30.4 0.63 0.63 1.27 1.26 1.92 1.91 3.2 3.21 6.41 6.42 9.62 9.62 22.7 22.7 45.4 45.4 68.1 68.1 22 22 44.1 44.1 66.1 66.1l22.5 22.5c13.9 13.9 27.8 27.8 41.7 41.7 0.64 0.64 1.28 1.28 1.93 1.94 42.7 42.7 85.3 85.4 128 128 3.03-1.36 5.12-2.87 7.46-5.22 0.67-0.66 1.35-1.33 2.04-2.02 0.73-0.74 1.46-1.48 2.21-2.24 0.79-0.78 1.57-1.56 2.38-2.37 2.66-2.65 5.3-5.31 7.95-7.97l5.73-5.73c4.16-4.17 8.33-8.34 12.5-12.5 6.18-6.21 12.4-12.4 18.6-18.6 10.4-10.4 20.8-20.9 31.2-31.3 14.2-14.2 28.4-28.5 42.7-42.7 6.63-6.63 13.3-13.3 19.9-19.9 0.66-0.66 1.32-1.33 2.01-2.01 15.8-15.8 31.6-31.6 47.4-47.4 0.69-0.7 1.38-1.39 2.09-2.1 16.1-16.2 32.3-32.3 48.4-48.4 5.59-5.6 11.2-11.2 16.8-16.8l2.09-2.09c15.8-15.8 31.5-31.6 47.3-47.3 0.99-1 0.99-1 2.01-2.01 6.61-6.62 13.2-13.2 19.8-19.9 3.26-3.26 6.51-6.52 9.77-9.78l1.94-1.94c10.3-10.3 20.6-20.6 30.9-31 10.4-10.4 20.7-20.8 31.1-31.1 6.16-6.16 12.3-12.3 18.5-18.5 4.11-4.12 8.23-8.24 12.4-12.4 2.34-2.35 4.68-4.69 7.02-7.05 2.52-2.53 5.05-5.06 7.59-7.58 1.08-1.09 1.08-1.09 2.18-2.21 11.2-11.1 23.7-17.6 39.6-17.8 11.9 0.54 21.1 3.91 30.5 11 0.83 0.62 1.65 1.23 2.5 1.87 8.25 7.05 14.8 18.3 15.7 29.2 0.46 17-2.11 30.9-14.2 43.9h-2c-0.25 0.57-0.5 1.15-0.76 1.74-1.42 2.59-3.06 4.33-5.15 6.42-0.82 0.83-1.63 1.65-2.47 2.49-0.9 0.9-1.8 1.79-2.72 2.71-0.95 0.95-1.91 1.91-2.86 2.87-2.58 2.59-5.17 5.18-7.76 7.76l-8.13 8.13c-4.54 4.54-9.08 9.08-13.6 13.6-5.27 5.26-10.5 10.5-15.8 15.8-4.51 4.52-9.02 9.04-13.5 13.6-2.7 2.69-5.39 5.39-8.09 8.09-2.53 2.53-5.06 5.07-7.6 7.59-1.38 1.38-2.75 2.76-4.13 4.14-1.22 1.21-1.22 1.21-2.47 2.45-1.07 1.07-1.07 1.07-2.15 2.16-1.76 1.5-1.76 1.5-3.76 1.5l-1 3h-2l-1 3c-1.94 2.19-1.94 2.19-4 4h-2c-0.27 0.6-0.55 1.2-0.83 1.82-1.83 3.42-4.65 5.93-7.38 8.65-0.65 0.65-1.3 1.3-1.96 1.97l-11.3 11.3c-4.35 4.36-8.7 8.71-13.1 13.1-4.21 4.21-8.41 8.42-12.6 12.6-9.67 9.69-19.3 19.4-29 29-7.47 7.47-15 15-22.4 22.4-1.07 1.07-2.15 2.14-3.22 3.22-1.62 1.61-3.23 3.23-4.85 4.85-15 15-30.1 30.1-45.1 45.1l-1.72 1.72c-2.87 2.87-5.75 5.75-8.63 8.62l-1.73 1.73c-1.15 1.16-2.31 2.31-3.46 3.47-18 18-35.9 35.9-53.9 53.9-20.2 20.2-40.3 40.4-60.5 60.6-2.15 2.15-4.3 4.31-6.46 6.46l-1.6 1.6c-8 8-16 16-24 24-9.1 9.11-18.2 18.2-27.3 27.3-4.64 4.64-9.29 9.28-13.9 13.9-4.25 4.26-8.5 8.51-12.8 12.8-1.54 1.54-3.08 3.07-4.61 4.61-19.8 19.9-19.8 19.9-31.1 24.2-0.97 0.38-1.93 0.76-2.93 1.15-11.9 4.12-26.2 3.02-37.6-2.09-3.2-1.78-6.11-3.76-9-6-0.93-0.7-1.86-1.4-2.81-2.12-2.19-1.88-4.26-3.74-6.19-5.88v-2c-0.99-0.33-1.98-0.66-3-1-2.19-1.94-2.19-1.94-4-4v-2c-0.99-0.33-1.98-0.66-3-1-1.22-1.45-2.44-2.91-3.61-4.39-1.54-1.88-1.54-1.88-4.39-4.11-3.1-2.59-5.43-5.4-8-8.5-0.83-0.66-1.65-1.32-2.5-2-2.5-2-2.5-2-4.94-4.94-2.47-3.13-2.47-3.13-5.56-5.56-3.11-2.59-5.42-5.4-8-8.5-0.99-0.83-1.98-1.65-3-2.5-3.1-2.59-5.43-5.4-8-8.5-0.78-0.62-1.57-1.24-2.38-1.88-3.03-2.45-5.39-5.21-7.93-8.17-2.99-3.45-6.14-6.51-9.69-9.39-3.07-2.62-5.42-5.46-8-8.56-0.99-0.83-1.98-1.65-3-2.5-3.11-2.59-5.42-5.4-8-8.5-0.99-0.83-1.98-1.65-3-2.5-3.1-2.59-5.43-5.4-8-8.5-0.78-0.62-1.57-1.24-2.38-1.88-3.03-2.45-5.39-5.21-7.93-8.17-2.99-3.45-6.14-6.51-9.69-9.39-3.07-2.62-5.42-5.46-8-8.56-0.99-0.83-1.98-1.65-3-2.5-3.11-2.59-5.42-5.4-8-8.5-0.99-0.83-1.98-1.65-3-2.5-3.1-2.59-5.43-5.4-8-8.5-0.78-0.62-1.57-1.24-2.38-1.88-3.03-2.45-5.39-5.21-7.93-8.17-2.99-3.45-6.14-6.51-9.69-9.39-3.07-2.62-5.42-5.46-8-8.56-0.99-0.83-1.98-1.65-3-2.5-3.11-2.59-5.42-5.4-8-8.5-0.99-0.83-1.98-1.65-3-2.5-3.1-2.59-5.43-5.4-8-8.5-0.78-0.62-1.57-1.24-2.38-1.88-3.03-2.45-5.39-5.21-7.93-8.17-2.99-3.45-6.14-6.51-9.69-9.39-3.07-2.62-5.42-5.46-8-8.56-0.99-0.83-1.98-1.65-3-2.5-3.11-2.59-5.42-5.4-8-8.5-0.99-0.83-1.98-1.65-3-2.5-3.1-2.59-5.43-5.4-8-8.5-0.78-0.62-1.57-1.24-2.38-1.88-3.03-2.45-5.39-5.21-7.93-8.17-2.99-3.45-6.14-6.51-9.69-9.39-3.07-2.62-5.42-5.46-8-8.56-0.99-0.83-1.98-1.65-3-2.5-3.11-2.59-5.42-5.4-8-8.5-0.99-0.83-1.98-1.65-3-2.5-3.1-2.59-5.43-5.4-8-8.5-0.78-0.62-1.57-1.24-2.38-1.88-3.03-2.45-5.39-5.21-7.93-8.17-2.99-3.45-6.14-6.51-9.69-9.39-3.07-2.62-5.42-5.46-8-8.56-0.99-0.83-1.98-1.65-3-2.5-3.11-2.59-5.42-5.4-8-8.5-0.99-0.83-1.98-1.65-3-2.5-3.1-2.59-5.43-5.4-8-8.5-1.18-0.93-1.18-0.93-2.38-1.88-3.03-2.45-5.39-5.21-7.93-8.17-2.99-3.45-6.14-6.51-9.69-9.39-3.07-2.62-5.42-5.46-8-8.56-0.99-0.83-1.98-1.65-3-2.5-3.11-2.59-5.42-5.4-8-8.5-0.99-0.83-1.98-1.65-3-2.5-3.1-2.59-5.43-5.4-8-8.5-1.18-0.93-1.18-0.93-2.38-1.88-3.03-2.45-5.39-5.21-7.93-8.17-2.99-3.45-6.14-6.51-9.69-9.39-3.07-2.62-5.42-5.46-8-8.56-0.99-0.83-1.98-1.65-3-2.5-3.11-2.59-5.42-5.4-8-8.5-0.99-0.83-1.98-1.65-3-2.5-3.1-2.59-5.43-5.4-8-8.5-0.78-0.62-1.57-1.24-2.38-1.88-3.03-2.45-5.39-5.21-7.93-8.17-2.99-3.45-6.14-6.51-9.69-9.39-3.07-2.62-5.42-5.46-8-8.56-1.46-1.21-2.92-2.41-4.4-3.6-11-9.57-18.5-22.7-19.8-37.3-0.58-13.2 3.97-24.3 11.2-35.1h2c0.25-0.59 0.5-1.18 0.75-1.79 4.55-8.07 15.4-12.5 23.9-15 15.6-3.5 30.8 0.04 43.4 9.79z" fill="#000100"/>
<path transform="translate(331,311)" d="m0 0c10.8 9.32 20.7 19.6 30.8 29.6 1.9 1.89 3.79 3.79 5.68 5.68 4.1 4.09 8.19 8.19 12.3 12.3 6.09 6.1 12.2 12.2 18.3 18.3 10.2 10.2 20.5 20.5 30.7 30.7 10.1 10.2 20.3 20.3 30.4 30.4 0.63 0.63 1.27 1.26 1.92 1.91 3.2 3.21 6.41 6.42 9.62 9.62 22.7 22.7 45.4 45.4 68.1 68.1 22 22 44.1 44.1 66.1 66.1l22.5 22.5c13.9 13.9 27.8 27.8 41.7 41.7 0.64 0.64 1.28 1.28 1.93 1.94 42.7 42.7 85.3 85.4 128 128 3.03-1.36 5.13-2.88 7.47-5.22 1.01-1.01 1.01-1.01 2.04-2.03 1.1-1.11 1.1-1.11 2.22-2.24 0.78-0.79 1.57-1.57 2.38-2.38 2.66-2.66 5.31-5.32 7.96-7.98 1.91-1.92 3.83-3.83 5.74-5.75 4.17-4.18 8.34-8.36 12.5-12.5 6.2-6.22 12.4-12.4 18.6-18.6 10.4-10.4 20.9-20.9 31.3-31.4 14.9-15 29.8-29.9 44.7-44.8 5.98-5.99 12-12 18-18l2.02-2.02c15.8-15.8 31.6-31.7 47.5-47.6l2.1-2.1c16.2-16.2 32.3-32.4 48.5-48.6l2.11-2.11c3.5-3.51 7-7.02 10.5-10.5 0.69-0.69 1.39-1.38 2.1-2.1 1.4-1.4 2.79-2.8 4.19-4.2 23.1-23.1 46.2-46.2 69.3-69.4 3.26-3.27 6.52-6.53 9.78-9.79 0.64-0.65 1.29-1.29 1.95-1.95 10.3-10.3 20.6-20.7 31-31 10.4-10.4 20.8-20.8 31.1-31.2 6.17-6.17 12.3-12.4 18.5-18.5 4.11-4.13 8.24-8.26 12.4-12.4 2.35-2.34 4.69-4.7 7.03-7.05 2.53-2.55 5.07-5.08 7.61-7.61 1.08-1.09 1.08-1.09 2.18-2.21 10.2-10.1 22.6-16.2 37-16.8 13 0.09 26.1 4.09 35.7 13.2 12.2 13.8 15.4 26.5 14.8 44.4-0.77 10.2-7.31 21-14.2 28.4h-2c-0.23 0.55-0.46 1.11-0.69 1.68-1.69 2.99-3.8 5.06-6.24 7.5-0.5 0.51-1.01 1.02-1.54 1.55-1.71 1.72-3.43 3.43-5.15 5.14-1.23 1.24-2.47 2.48-3.71 3.72-3.41 3.42-6.82 6.83-10.2 10.2-3.67 3.67-7.35 7.35-11 11-7.2 7.21-14.4 14.4-21.6 21.6-5.85 5.85-11.7 11.7-17.6 17.6-0.83 0.84-1.66 1.67-2.52 2.53l-5.07 5.07c-15.8 15.8-31.7 31.7-47.6 47.6-13.6 13.6-27.2 27.2-40.9 40.9-15.8 15.8-31.6 31.6-47.4 47.4l-25.1 25.1c-7.12 7.13-14.2 14.2-21.4 21.4-3.64 3.63-7.28 7.27-10.9 10.9-3.32 3.33-6.64 6.65-9.97 9.97l-3.63 3.63c-1.62 1.63-3.26 3.26-4.89 4.89-1.37 1.36-1.37 1.36-2.76 2.75-2.17 1.92-2.17 1.92-4.17 1.92-0.21 0.54-0.41 1.07-0.62 1.62-1.91 3.3-4.43 5.97-7.38 8.38h-2l-2 4h-2l-2 4h-2l-2 4h-2l-1 3h-2l-1 3h-2l-2 4h-2l-1 3h-2c-0.25 0.57-0.5 1.14-0.75 1.73-1.44 2.62-3.13 4.42-5.25 6.52-0.7 0.71-1.4 1.41-2.12 2.14-1.88 1.61-1.88 1.61-3.88 1.61l-1 3h-2c-0.25 0.57-0.49 1.14-0.75 1.73-1.46 2.65-3.18 4.46-5.31 6.6l-2.42 2.42c-0.83 0.83-1.66 1.65-2.52 2.5-0.83 0.84-1.67 1.68-2.52 2.55-1.2 1.19-1.2 1.19-2.42 2.4l-2.21 2.21c-1.85 1.59-1.85 1.59-3.85 1.59l-1 3h-2c-0.27 0.6-0.54 1.2-0.81 1.81-1.19 2.19-2.29 3.6-4.19 5.19h-2l-1 3h-2l-2 4h-2l-2 4h-2c-0.27 0.6-0.54 1.2-0.81 1.81-1.19 2.19-2.29 3.6-4.19 5.19h-2c-0.26 0.58-0.51 1.16-0.77 1.76-1.36 2.47-2.86 4.12-4.85 6.12-0.75 0.76-1.51 1.52-2.28 2.3-0.83 0.83-1.65 1.65-2.51 2.5-1.3 1.31-1.3 1.31-2.63 2.65-2.39 2.4-4.78 4.8-7.18 7.19-2 2-4 4.01-6 6.01-4.73 4.74-9.47 9.48-14.2 14.2-4.86 4.86-9.72 9.73-14.6 14.6-4.18 4.2-8.36 8.39-12.6 12.6-2.5 2.49-5 4.99-7.49 7.49-2.78 2.8-5.58 5.59-8.38 8.38-0.81 0.82-1.62 1.63-2.45 2.47-7.17 7.11-15 14-24.6 17.7-0.97 0.38-1.93 0.76-2.93 1.15-11.9 4.12-26.2 3.02-37.6-2.09-3.2-1.78-6.11-3.76-9-6-0.93-0.7-1.86-1.4-2.81-2.12-2.19-1.88-4.26-3.74-6.19-5.88v-2c-0.99-0.33-1.98-0.66-3-1-2.19-1.94-2.19-1.94-4-4v-2c-0.99-0.33-1.98-0.66-3-1-1.22-1.45-2.44-2.91-3.61-4.39-1.54-1.88-1.54-1.88-4.39-4.11-3.1-2.59-5.43-5.4-8-8.5-0.83-0.66-1.65-1.32-2.5-2-2.5-2-2.5-2-4.94-4.94-2.47-3.13-2.47-3.13-5.56-5.56-3.11-2.59-5.42-5.4-8-8.5-0.99-0.83-1.98-1.65-3-2.5-3.1-2.59-5.43-5.4-8-8.5-0.78-0.62-1.57-1.24-2.38-1.88-3.03-2.45-5.39-5.21-7.93-8.17-2.99-3.45-6.14-6.51-9.69-9.39-3.07-2.62-5.42-5.46-8-8.56-0.99-0.83-1.98-1.65-3-2.5-3.11-2.59-5.42-5.4-8-8.5-0.99-0.83-1.98-1.65-3-2.5-3.1-2.59-5.43-5.4-8-8.5-0.8-0.64-1.61-1.28-2.44-1.94-2.77-2.23-4.82-4.67-7.09-7.4-1.93-2.18-4.19-3.85-6.47-5.66-1.21-1.45-1.21-1.45-2.44-2.94-2.47-3.13-2.47-3.13-5.56-5.56-3.11-2.59-5.42-5.4-8-8.5-0.99-0.83-1.98-1.65-3-2.5-3.1-2.59-5.43-5.4-8-8.5-0.83-0.66-1.65-1.32-2.5-2-2.5-2-2.5-2-4.94-4.94-2.47-3.13-2.47-3.13-5.56-5.56-3.11-2.59-5.42-5.4-8-8.5-0.99-0.83-1.98-1.65-3-2.5-3.1-2.59-5.43-5.4-8-8.5-0.78-0.62-1.57-1.24-2.38-1.88-3.03-2.45-5.39-5.21-7.93-8.17-2.99-3.45-6.14-6.51-9.69-9.39-3.07-2.62-5.42-5.46-8-8.56-0.99-0.83-1.98-1.65-3-2.5-3.11-2.59-5.42-5.4-8-8.5-0.99-0.83-1.98-1.65-3-2.5-3.1-2.59-5.43-5.4-8-8.5-0.78-0.62-1.57-1.24-2.38-1.88-3.03-2.45-5.39-5.21-7.93-8.17-2.99-3.45-6.14-6.51-9.69-9.39-3.07-2.62-5.42-5.46-8-8.56-0.99-0.83-1.98-1.65-3-2.5-3.11-2.59-5.42-5.4-8-8.5-0.99-0.83-1.98-1.65-3-2.5-3.1-2.59-5.43-5.4-8-8.5-0.78-0.62-1.57-1.24-2.38-1.88-3.03-2.45-5.39-5.21-7.93-8.17-2.99-3.45-6.14-6.51-9.69-9.39-3.07-2.62-5.42-5.46-8-8.56-0.99-0.83-1.98-1.65-3-2.5-3.11-2.59-5.42-5.4-8-8.5-0.99-0.83-1.98-1.65-3-2.5-3.1-2.59-5.43-5.4-8-8.5-1.18-0.93-1.18-0.93-2.38-1.88-3.03-2.45-5.39-5.21-7.93-8.17-2.99-3.45-6.14-6.51-9.69-9.39-3.07-2.62-5.42-5.46-8-8.56-0.99-0.83-1.98-1.65-3-2.5-3.11-2.59-5.42-5.4-8-8.5-0.99-0.82-1.98-1.65-3-2.5-3.1-2.59-5.43-5.4-8-8.5-1.18-0.93-1.18-0.93-2.38-1.88-3.03-2.45-5.39-5.21-7.93-8.17-2.99-3.45-6.14-6.51-9.69-9.39-3.07-2.62-5.42-5.46-8-8.56-0.99-0.82-1.98-1.65-3-2.5-3.11-2.59-5.42-5.4-8-8.5-0.99-0.82-1.98-1.65-3-2.5-3.1-2.59-5.43-5.4-8-8.5-1.18-0.93-1.18-0.93-2.38-1.88-3.03-2.45-5.39-5.21-7.93-8.17-2.99-3.45-6.14-6.51-9.69-9.39-3.07-2.62-5.42-5.46-8-8.56-1.49-1.24-1.49-1.24-3-2.5-3.11-2.59-5.42-5.4-8-8.5-1.49-1.24-1.49-1.24-3-2.5-3.11-2.59-5.42-5.4-8-8.5-2-1.67-4-3.34-6-5-1.36-1.65-2.69-3.31-4-5-1.18-1.14-1.18-1.14-2.38-2.31-9.11-9.33-14.4-20.8-14.9-33.9 0.37-12.5 4.49-22.6 11.3-32.8h2c0.25-0.59 0.5-1.18 0.75-1.79 4.55-8.07 15.4-12.5 23.9-15 15.6-3.5 30.8 0.04 43.4 9.79z" fill="#000100"/>
</svg>
